<svg xmlns="http://www.w3.org/2000/svg" xmlns:xlink="http://www.w3.org/1999/xlink" width="500" zoomAndPan="magnify" viewBox="0 0 375 374.999991" height="500" preserveAspectRatio="xMidYMid meet" version="1.0"><defs><clipPath id="255995bf20"><path d="M 123 84.011719 L 277.234375 84.011719 L 277.234375 276 L 123 276 Z M 123 84.011719 " clip-rule="nonzero"/></clipPath><clipPath id="aad4999783"><path d="M 97.984375 128 L 201 128 L 201 291 L 97.984375 291 Z M 97.984375 128 " clip-rule="nonzero"/></clipPath></defs><g clip-path="url(#255995bf20)"><path fill="#074b97" d="M 187.484375 84.082031 L 277.242188 136.378906 L 277.242188 238.910156 L 251.394531 253.546875 L 251.394531 166.496094 L 239.136719 172.453125 L 239.136719 260.496094 L 213.292969 275.722656 L 213.292969 173.777344 L 123.832031 122.144531 L 150.335938 105.597656 L 225.882812 150.609375 L 237.8125 143.324219 L 162.929688 99.640625 Z M 187.484375 84.082031 " fill-opacity="1" fill-rule="nonzero"/></g><g clip-path="url(#aad4999783)"><path fill="#1973c0" d="M 111.238281 128.101562 L 97.984375 136.046875 L 97.984375 194.921875 L 174.855469 239.3125 L 174.855469 253.140625 L 97.984375 209.855469 L 97.984375 239.234375 L 187.449219 290.945312 L 200.535156 283.542969 L 200.535156 224.355469 L 123.832031 179.902344 L 123.832031 167.160156 L 200.535156 209.527344 L 200.535156 179.902344 Z M 111.238281 128.101562 " fill-opacity="1" fill-rule="nonzero"/></g></svg>